<svg xmlns="http://www.w3.org/2000/svg"
	 viewBox="50 180 400 150"
	 preserveAspectRatio="xMidYMid meet">
	<path d="M 98.667 193.667 C 98.300 194.033, 98 195.143, 98 196.131 C 98 198.319, 95.115 199.995, 91.316 200.015 C 84.950 200.047, 76.413 204.078, 68.157 210.949 C 52.593 223.901, 48.116 245.296, 56.939 264.555 C 60.318 271.931, 71.322 283.368, 78.535 287 C 81.266 288.375, 86.959 291.457, 91.187 293.848 C 95.414 296.240, 99.345 297.905, 99.921 297.549 C 100.497 297.193, 101.340 295.466, 101.795 293.710 C 102.543 290.827, 103.212 290.365, 108.750 288.917 C 121.850 285.492, 135.169 273.424, 140.617 260.044 C 142.663 255.017, 143.289 251.761, 143.317 246 C 143.360 236.958, 142.111 232.245, 137.778 225.084 C 133.361 217.787, 131.786 216.913, 128.545 219.958 C 125.663 222.665, 125.368 224.652, 127.412 227.571 C 130.234 231.600, 132.277 241.078, 131.638 247.185 C 130.426 258.786, 121.762 270.556, 110.734 275.583 C 105.483 277.976, 103.160 278.430, 96 278.462 C 88.485 278.496, 86.805 278.149, 81.500 275.473 C 74.022 271.699, 72.156 268.581, 74.465 263.714 C 76.393 259.653, 80.672 257, 85.296 257 C 88.182 257, 88.891 257.431, 89.411 259.500 C 89.782 260.980, 90.755 262, 91.795 262 C 93.910 262, 110.936 250.329, 111.691 248.362 C 112.436 246.422, 110.384 244.256, 105.063 241.365 C 102.553 240.001, 98.572 237.744, 96.216 236.349 C 91.397 233.496, 89 234.261, 89 238.654 C 89 239.979, 88.438 241.258, 87.750 241.497 C 77.446 245.077, 74.002 246.854, 69.861 250.727 L 65.121 255.161 64.433 251.494 C 61.185 234.183, 74.819 215.348, 92.078 213.304 C 96.662 212.761, 97 212.873, 97 214.926 C 97 217.700, 98.723 221, 100.170 221 C 102.127 221, 120 208.656, 120 207.305 C 120 205.843, 109.522 197.822, 103.790 194.895 C 99.605 192.758, 99.581 192.752, 98.667 193.667
    M 184.785 214.531 C ...
    (SEU PATH COMPLETO AQUI)
    ..."
		  fill="#0f8bff"/>
</svg>
